<svg width="24" height="24" viewBox="0 0 24 24" fill="none" xmlns="http://www.w3.org/2000/svg">
<path d="M14.1818 7.32591C14.1818 7.17329 14.2182 7.02703 14.2909 6.88712C14.3636 6.74722 14.4455 6.65183 14.5364 6.60095C15.0818 6.32114 15.6409 6.10493 16.2136 5.95231C16.7864 5.79968 17.3818 5.72337 18 5.72337C18.4 5.72337 18.7909 5.75517 19.1727 5.81876C19.5545 5.88235 19.9273 5.97774 20.2909 6.10493C20.4 6.1558 20.5 6.25119 20.5909 6.3911C20.6818 6.531 20.7273 6.68998 20.7273 6.86804C20.7273 7.14785 20.6591 7.36407 20.5227 7.51669C20.3864 7.66932 20.2182 7.70747 20.0182 7.63116C19.7091 7.50397 19.3864 7.40859 19.05 7.34499C18.7136 7.2814 18.3636 7.2496 18 7.2496C17.4727 7.2496 16.9636 7.31955 16.4727 7.45946C15.9818 7.59936 15.5 7.80922 15.0273 8.08903C14.7727 8.21622 14.5682 8.20986 14.4136 8.06995C14.2591 7.93005 14.1818 7.68204 14.1818 7.32591ZM14.1818 15.7202C14.1818 15.5676 14.2182 15.4149 14.2909 15.2623C14.3636 15.1097 14.4455 15.0079 14.5364 14.9571C15.0818 14.6773 15.6409 14.4674 16.2136 14.3275C16.7864 14.1876 17.3818 14.1176 18 14.1176C18.4 14.1176 18.7909 14.1494 19.1727 14.213C19.5545 14.2766 19.9273 14.372 20.2909 14.4992C20.4 14.5501 20.5 14.6455 20.5909 14.7854C20.6818 14.9253 20.7273 15.0843 20.7273 15.2623C20.7273 15.5421 20.6591 15.7583 20.5227 15.911C20.3864 16.0636 20.2182 16.1017 20.0182 16.0254C19.7091 15.8983 19.3864 15.8029 19.05 15.7393C18.7136 15.6757 18.3636 15.6439 18 15.6439C17.4727 15.6439 16.9636 15.7075 16.4727 15.8347C15.9818 15.9618 15.5 16.1653 15.0273 16.4452C14.7727 16.5723 14.5682 16.5723 14.4136 16.4452C14.2591 16.318 14.1818 16.0763 14.1818 15.7202ZM14.1818 11.5231C14.1818 11.3704 14.2182 11.2242 14.2909 11.0843C14.3636 10.9444 14.4455 10.849 14.5364 10.7981C15.0818 10.5183 15.6409 10.3021 16.2136 10.1494C16.7864 9.99682 17.3818 9.92051 18 9.92051C18.4 9.92051 18.7909 9.95231 19.1727 10.0159C19.5545 10.0795 19.9273 10.1749 20.2909 10.3021C20.4 10.3529 20.5 10.4483 20.5909 10.5882C20.6818 10.7281 20.7273 10.8871 20.7273 11.0652C20.7273 11.345 20.6591 11.5612 20.5227 11.7138C20.3864 11.8665 20.2182 11.9046 20.0182 11.8283C19.7091 11.7011 19.3864 11.6057 19.05 11.5421C18.7136 11.4785 18.3636 11.4467 18 11.4467C17.4727 11.4467 16.9636 11.5167 16.4727 11.6566C15.9818 11.7965 15.5 12.0064 15.0273 12.2862C14.7727 12.4134 14.5682 12.407 14.4136 12.2671C14.2591 12.1272 14.1818 11.8792 14.1818 11.5231ZM5.67273 19.0779C6.65454 19.0779 7.60455 19.2369 8.52273 19.5549C9.44091 19.8728 10.3455 20.3498 11.2364 20.9857V4.69316C10.4182 3.93005 9.53182 3.33863 8.57727 2.91892C7.62273 2.49921 6.65454 2.28935 5.67273 2.28935C4.98182 2.28935 4.30455 2.41018 3.64091 2.65183C2.97727 2.89348 2.30909 3.19237 1.63636 3.54849V20.1081C2.2 19.752 2.84091 19.4913 3.55909 19.3259C4.27727 19.1606 4.98182 19.0779 5.67273 19.0779ZM12.8727 20.9857C13.7818 20.3498 14.6727 19.8728 15.5455 19.5549C16.4182 19.2369 17.3455 19.0779 18.3273 19.0779C19.0182 19.0779 19.7318 19.1542 20.4682 19.3068C21.2045 19.4595 21.8364 19.663 22.3636 19.9173V3.54849C21.7455 3.11606 21.0909 2.79809 20.4 2.59459C19.7091 2.3911 19.0182 2.28935 18.3273 2.28935C17.3455 2.28935 16.3955 2.49921 15.4773 2.91892C14.5591 3.33863 13.6909 3.93005 12.8727 4.69316V20.9857ZM12.0545 24C11.9091 24 11.7773 23.9809 11.6591 23.9428C11.5409 23.9046 11.4364 23.8347 11.3455 23.7329C10.4909 22.9952 9.58182 22.4229 8.61818 22.0159C7.65455 21.6089 6.67273 21.4054 5.67273 21.4054C5 21.4054 4.34545 21.5199 3.70909 21.7488C3.07273 21.9777 2.43636 22.2576 1.8 22.5882C1.38182 22.868 0.977273 22.8299 0.586364 22.4738C0.195455 22.1176 0 21.6089 0 20.9475V3.2814C0 2.89984 0.0636363 2.55008 0.190909 2.23211C0.318182 1.91415 0.509091 1.66614 0.763636 1.48808C1.52727 0.979332 2.32273 0.604134 3.15 0.36248C3.97727 0.120827 4.81818 0 5.67273 0C6.81818 0 7.93182 0.216217 9.01364 0.648649C10.0955 1.08108 11.1091 1.74245 12.0545 2.63275C12.9818 1.74245 13.9773 1.08108 15.0409 0.648649C16.1045 0.216217 17.2 0 18.3273 0C19.1818 0 20.0182 0.120827 20.8364 0.36248C21.6545 0.604134 22.4455 0.979332 23.2091 1.48808C23.4636 1.66614 23.6591 1.91415 23.7955 2.23211C23.9318 2.55008 24 2.89984 24 3.2814V20.9475C24 21.6598 23.7955 22.2003 23.3864 22.5692C22.9773 22.938 22.5727 22.9444 22.1727 22.5882C21.5545 22.2321 20.9273 21.9459 20.2909 21.7297C19.6545 21.5135 19 21.4054 18.3273 21.4054C17.3455 21.4054 16.3818 21.6089 15.4364 22.0159C14.4909 22.4229 13.6 22.9952 12.7636 23.7329C12.6727 23.8347 12.5682 23.9046 12.45 23.9428C12.3318 23.9809 12.2 24 12.0545 24Z" fill="url(#paint0_linear_11_161)"/>
<defs>
<linearGradient id="paint0_linear_11_161" x1="14.4" y1="24" x2="14.4" y2="1.0226e-09" gradientUnits="userSpaceOnUse">
<stop stop-color="#64DE46"/>
<stop offset="1" stop-color="#A8F132"/>
</linearGradient>
</defs>
</svg>
