<svg width="106" height="38" viewBox="0 0 106 38" fill="none" xmlns="http://www.w3.org/2000/svg">
<path d="M9.472 3.63998V30.088H22.288L21.328 37H0.591995V3.63998H9.472Z" fill="#131415"/>
<path d="M35.5941 10.552C39.5941 10.552 42.7301 11.752 45.0021 14.152C47.2741 16.552 48.4101 19.912 48.4101 24.232C48.4101 26.984 47.8981 29.384 46.8741 31.432C45.8501 33.48 44.3621 35.064 42.4101 36.184C40.4901 37.304 38.2181 37.864 35.5941 37.864C31.5941 37.864 28.4581 36.664 26.1861 34.264C23.9141 31.864 22.7781 28.504 22.7781 24.184C22.7781 21.432 23.2901 19.032 24.3141 16.984C25.3381 14.936 26.8101 13.352 28.7301 12.232C30.6821 11.112 32.9701 10.552 35.5941 10.552ZM35.5941 16.744C34.2181 16.744 33.1941 17.352 32.5221 18.568C31.8821 19.752 31.5621 21.624 31.5621 24.184C31.5621 26.84 31.8821 28.76 32.5221 29.944C33.1941 31.096 34.2181 31.672 35.5941 31.672C36.9701 31.672 37.9781 31.08 38.6181 29.896C39.2901 28.68 39.6261 26.792 39.6261 24.232C39.6261 21.608 39.2901 19.704 38.6181 18.52C37.9781 17.336 36.9701 16.744 35.5941 16.744Z" fill="#131415"/>
<path d="M67.4654 10.552C70.5054 10.552 72.8414 11.752 74.4734 14.152C76.1054 16.552 76.9214 19.912 76.9214 24.232C76.9214 26.856 76.5054 29.208 75.6734 31.288C74.8734 33.336 73.7054 34.952 72.1694 36.136C70.6334 37.288 68.8094 37.864 66.6974 37.864C65.2894 37.864 64.0094 37.576 62.8574 37C61.7374 36.456 60.7934 35.672 60.0254 34.648L59.6894 37H52.1054V1.33599L60.6494 0.471985V13.912C61.3854 12.888 62.3614 12.072 63.5774 11.464C64.7934 10.856 66.0894 10.552 67.4654 10.552ZM64.1534 31.72C65.4014 31.72 66.3614 31.144 67.0334 29.992C67.7374 28.84 68.0894 26.92 68.0894 24.232C68.0894 21.352 67.7694 19.384 67.1294 18.328C66.5214 17.272 65.6414 16.744 64.4894 16.744C62.9854 16.744 61.7054 17.64 60.6494 19.432V29.56C61.5134 31 62.6814 31.72 64.1534 31.72Z" fill="#131415"/>
<path d="M92.3129 10.552C96.3129 10.552 99.4489 11.752 101.721 14.152C103.993 16.552 105.129 19.912 105.129 24.232C105.129 26.984 104.617 29.384 103.593 31.432C102.569 33.48 101.081 35.064 99.1289 36.184C97.2089 37.304 94.9369 37.864 92.3129 37.864C88.3129 37.864 85.1769 36.664 82.9049 34.264C80.6329 31.864 79.4969 28.504 79.4969 24.184C79.4969 21.432 80.0089 19.032 81.0329 16.984C82.0569 14.936 83.5289 13.352 85.4489 12.232C87.4009 11.112 89.6889 10.552 92.3129 10.552ZM92.3129 16.744C90.9369 16.744 89.9129 17.352 89.2409 18.568C88.6009 19.752 88.2809 21.624 88.2809 24.184C88.2809 26.84 88.6009 28.76 89.2409 29.944C89.9129 31.096 90.9369 31.672 92.3129 31.672C93.6889 31.672 94.6969 31.08 95.3369 29.896C96.0089 28.68 96.3449 26.792 96.3449 24.232C96.3449 21.608 96.0089 19.704 95.3369 18.52C94.6969 17.336 93.6889 16.744 92.3129 16.744Z" fill="#131415"/>
</svg>
